<?xml version="1.0" standalone="no"?>
<!DOCTYPE svg PUBLIC "-//W3C//DTD SVG 20010904//EN"
 "http://www.w3.org/TR/2001/REC-SVG-20010904/DTD/svg10.dtd">
<svg version="1.0" xmlns="http://www.w3.org/2000/svg"
 width="133.000000pt" height="133.000000pt" viewBox="0 0 133.000000 133.000000"
 preserveAspectRatio="xMidYMid meet">
<metadata>
Created by potrace 1.14, written by Peter Selinger 2001-2017
</metadata>
<g transform="translate(0.000000,133.000000) scale(0.100000,-0.100000)"
fill="#000000" stroke="none">
<path d="M379 1320 c-32 -8 -45 -33 -32 -62 11 -24 12 -24 141 -20 l131 3 10
-38 c6 -21 22 -78 35 -128 17 -60 22 -91 15 -96 -10 -6 35 -201 62 -267 l9
-23 33 20 c19 11 56 25 83 31 l50 11 -38 117 c-21 64 -44 122 -53 128 -13 10
-95 215 -95 240 0 6 36 11 96 12 97 1 124 10 120 38 -4 28 -27 32 -164 33 -74
1 -139 4 -143 7 -5 3 -9 0 -9 -6 0 -6 -5 -8 -11 -5 -13 8 -209 12 -240 5z"/>
<path d="M171 909 c-88 -18 -96 -40 -60 -169 25 -93 54 -136 99 -152 56 -20
302 -16 373 5 35 11 57 23 54 30 -2 7 -28 18 -58 25 l-55 13 -29 97 c-31 106
-52 137 -99 148 -42 10 -183 12 -225 3z"/>
<path d="M857 685 c-108 -37 -198 -141 -214 -249 -6 -38 -16 -50 -46 -52 -12
0 -49 -4 -83 -8 l-60 -7 -23 41 c-86 153 -256 153 -334 1 -42 -85 -33 -166 28
-247 70 -93 216 -85 287 15 25 35 30 37 70 35 24 -2 74 -5 111 -8 38 -2 70 -6
71 -8 35 -61 81 -115 119 -140 164 -106 364 -35 442 157 33 83 31 207 -7 286
-54 117 -156 191 -269 194 -31 1 -73 -3 -92 -10z m111 -169 c110 -57 117 -252
11 -324 -27 -19 -43 -23 -77 -19 -164 18 -178 310 -17 358 26 8 46 4 83 -15z
m-695 -105 c15 -2 47 -67 47 -96 0 -75 -63 -133 -116 -105 -30 16 -54 68 -50
106 2 16 4 34 5 40 0 6 13 23 28 38 18 19 33 25 52 22 14 -2 29 -5 34 -5z"/>
</g>
</svg>
